<svg xmlns="http://www.w3.org/2000/svg" viewBox="0 0 852.94 178.37"><defs><style>.cls-1{fill:#fff;}</style></defs><title>Asset 1</title><g id="Layer_2" data-name="Layer 2"><g id="Layer_1-2" data-name="Layer 1"><path class="cls-1" d="M130,174.62H112.38V158.06h-.44C100.9,172,83.24,178.37,70,178.37c-45,0-70-29.81-70-68.89C0,43.25,43.49,13.22,84.56,13.22c37.09,0,65.57,17.22,65.79,54.09h-27.6c-1.1-21.42-15.9-31.57-39.08-31.57C46.14,35.74,27.6,73.5,27.6,108.6c0,29.36,15.68,47.25,43.27,47.25,27.16,0,41.95-18.1,47.91-43.27H75.51l4.42-21h67.78Z"/><path class="cls-1" d="M151.22,127.81c0-37.53,25.83-70.43,65.13-70.43,31.35,0,49.9,17.22,49.9,49,0,40-24.51,71.31-65.13,71.31C169.76,177.71,151.22,159.61,151.22,127.81Zm25.17.66c0,16.78,7.95,29.37,26.28,29.37,25.83,0,38.42-28,38.42-51.22,0-16.78-8-29.36-26.28-29.36C189,77.25,176.39,105.73,176.39,128.47Z"/><path class="cls-1" d="M295.11,28.23H309L295.51,91.79h84.68l13.53-63.56h13.94L376.5,174.62H362.56l15.17-70.94H293.05l-15.17,70.94H263.94Z"/><path class="cls-1" d="M409.32,125.2a50.86,50.86,0,0,0-.62,8.2c0,19.07,9.85,33.42,30.75,33.42,16.82,0,29.73-10.87,34.65-26.24H487c-7,23.58-23.17,37.11-48.19,37.11-27.88,0-43.06-17.43-43.06-44.9,0-33.42,20.91-67,57.2-67,25.42,0,40.19,16.61,40.19,41.21a140.16,140.16,0,0,1-1,18.25H409.32Zm70.73-10.87c0-2.87.2-5.54.2-8.2,0-17.63-11.07-29.53-28.91-29.53-21.32,0-35.88,18-40.39,37.73Z"/><path class="cls-1" d="M505.69,100.4c3.48-24,21.94-34.65,44.7-34.65,14.35,0,36.7,4.92,36.7,23.58,0,10.25-4.51,26.24-6.56,35.68-4.71,23.78-7,29.32-7,35.68,0,3.69,3.69,4.31,6.77,4.31a43.18,43.18,0,0,0,5.13-.41l-1.84,10.25a57,57,0,0,1-10.66,1c-7.18,0-11.07-4.51-11.28-11.48a53.5,53.5,0,0,1,.41-5.74l-.41-.41c-7.38,12.3-21.94,19.48-36.7,19.48-19.28,0-33.83-8.61-33.83-29.32,0-22.35,17.84-29.52,36.7-32.81,13.53-2.05,25.42-1,33.62-3.07,8.41-2.05,12.71-6.77,12.71-20.71,0-12.51-12.51-15.17-22.35-15.17-16.4,0-30.55,6.15-33.21,23.78H505.69Zm64,17.63-.41-.41c-4.1,5.13-16.82,5.54-23.38,5.95-15.79,1.23-41.82,2.05-41.82,24.19,0,13.53,11.27,19.07,23.58,19.07,20.71,0,33.82-12.51,37.93-31Z"/><path class="cls-1" d="M622.57,28.23h12.91L603.91,174.62H591Z"/><path class="cls-1" d="M633.85,68.82h19.07l6.77-32H672.6l-6.77,32h21.12L684.9,79.69H663.37l-14.56,67.87c-1,4.92-1.44,6.77-1.44,10,0,3.69,1.85,7.38,6.77,7.38a94.71,94.71,0,0,0,15.17-1.23L667.06,175c-4.31.41-8.82.82-13.13.82-9.63,0-19.47-2.46-19.47-15.17a55.84,55.84,0,0,1,1.43-10.87l14.56-70.12H631.38Z"/><path class="cls-1" d="M706.84,28.23h12.92L706.84,88.09h.41c7.38-12.5,21.32-22.35,37.11-22.35,18.45,0,32,8.2,32,28.5a65.28,65.28,0,0,1-1.64,12.51l-14.56,67.87H747.23L762,106.34a46.21,46.21,0,0,0,1.44-10.66c0-13.94-10.66-19.07-22.14-19.07-18.65,0-35.67,16.81-41.41,43.67l-11.69,54.33H675.26Z"/><path class="cls-1" d="M852.81,0s5.36,62.33-51.61,73.75C801.2,73.75,769,37.34,852.81,0Z"/><path class="cls-1" d="M852.31,70.39s-16.76,30.19-46.37,17.87C805.95,88.26,802.43,61.65,852.31,70.39Z"/></g></g></svg>